<svg width="51" height="42" viewBox="0 0 51 42" fill="none" xmlns="http://www.w3.org/2000/svg">
<rect width="51" height="42" rx="4" fill="white"/>
<path fill-rule="evenodd" clip-rule="evenodd" d="M48 0H3C1.34315 0 0 1.34315 0 3V39C0 40.6569 1.34315 42 3 42H48C49.6569 42 51 40.6569 51 39V3C51 1.34315 49.6569 0 48 0ZM3 39V3H48V39H3Z" fill="#202020"/>
<path fill-rule="evenodd" clip-rule="evenodd" d="M8.25 12.375C8.25 15.4816 10.7684 18 13.875 18C16.9816 18 19.5 15.4816 19.5 12.375C19.5 9.2684 16.9816 6.75 13.875 6.75C10.7684 6.75 8.25 9.2684 8.25 12.375ZM16.5 12.375C16.5 13.8247 15.3247 15 13.875 15C12.4253 15 11.25 13.8247 11.25 12.375C11.25 10.9253 12.4253 9.75 13.875 9.75C15.3247 9.75 16.5 10.9253 16.5 12.375Z" fill="#202020"/>
<path d="M10.8061 35.5654C10.2178 36.1486 9.26801 36.1445 8.68477 35.5562C8.10152 34.9679 8.10562 34.0182 8.69393 33.4349L21.031 21.2041L27.9844 27.2522C28.6095 27.7959 28.6755 28.7434 28.1318 29.3684C27.5881 29.9935 26.6406 30.0595 26.0156 29.5158L21.1644 25.2962L10.8061 35.5654Z" fill="#202020"/>
<path d="M22.0607 35.5608C21.4749 36.1466 20.5252 36.1466 19.9394 35.5609C19.3536 34.9751 19.3535 34.0254 19.9393 33.4396L39.6813 13.6958L50.4893 23.1791C51.112 23.7255 51.1739 24.6732 50.6275 25.2959C50.0811 25.9186 49.1334 25.9805 48.5107 25.4341L39.8154 17.8045L22.0607 35.5608Z" fill="#202020"/>
</svg>
