<svg width="53" height="53" viewBox="0 0 53 53" fill="none" xmlns="http://www.w3.org/2000/svg">
<g clip-path="url(#clip0_459_3148)">
<path d="M26.4118 13.3529C28.8059 13.3529 30.7648 15.3118 30.7648 17.7059C30.7648 20.1 28.8059 22.0588 26.4118 22.0588C24.0177 22.0588 22.0589 20.1 22.0589 17.7059C22.0589 15.3118 24.0177 13.3529 26.4118 13.3529ZM26.4118 35.1176C32.2883 35.1176 39.0354 37.9253 39.4706 39.4706H13.353C13.8536 37.9035 20.5571 35.1176 26.4118 35.1176ZM26.4118 9C21.6018 9 17.7059 12.8959 17.7059 17.7059C17.7059 22.5159 21.6018 26.4118 26.4118 26.4118C31.2218 26.4118 35.1177 22.5159 35.1177 17.7059C35.1177 12.8959 31.2218 9 26.4118 9ZM26.4118 30.7647C20.6006 30.7647 9.00006 33.6812 9.00006 39.4706V43.8235H43.8236V39.4706C43.8236 33.6812 32.223 30.7647 26.4118 30.7647Z" fill="white"/>
</g>
<defs>
<clipPath id="clip0_459_3148">
<rect width="52.2353" height="52.2353" fill="white" transform="translate(0.294189 0.293945)"/>
</clipPath>
</defs>
</svg>
