<svg width="20" height="20" viewBox="0 0 20 20" fill="none" xmlns="http://www.w3.org/2000/svg">
<path d="M10.196 5.39411C11.0764 5.39411 11.7967 6.1144 11.7967 6.99476C11.7967 7.87512 11.0764 8.59541 10.196 8.59541C9.31566 8.59541 8.59537 7.87512 8.59537 6.99476C8.59537 6.1144 9.31566 5.39411 10.196 5.39411ZM10.196 13.3974C12.3569 13.3974 14.8379 14.4298 14.998 14.998H5.39406C5.57814 14.4218 8.04314 13.3974 10.196 13.3974ZM10.196 3.79346C8.4273 3.79346 6.99471 5.22604 6.99471 6.99476C6.99471 8.76348 8.4273 10.1961 10.196 10.1961C11.9647 10.1961 13.3973 8.76348 13.3973 6.99476C13.3973 5.22604 11.9647 3.79346 10.196 3.79346ZM10.196 11.7967C8.05915 11.7967 3.79341 12.8692 3.79341 14.998V16.5987H16.5986V14.998C16.5986 12.8692 12.3329 11.7967 10.196 11.7967Z" fill="black"/>
</svg>
